<?xml version="1.0" encoding="UTF-8" standalone="no"?>
<!-- Created with Inkscape (http://www.inkscape.org/) -->

<svg
   width="56.493767mm"
   height="60.332191mm"
   viewBox="0 0 56.493767 60.332191"
   version="1.1"
   id="svg854"
   xmlns="http://www.w3.org/2000/svg"
   xmlns:svg="http://www.w3.org/2000/svg">
  <defs
     id="defs851" />
  <g
     id="layer1"
     transform="translate(-77.849136,-343.79469)">
    <g
       id="icon">
      <path
         style="fill:#3a95f5;fill-opacity:1;stroke:#000000;stroke-width:0;stroke-linecap:round;stroke-linejoin:round;stroke-miterlimit:4;stroke-dasharray:none"
         id="rect27709-2"
         width="51.951572"
         height="53.556473"
         x="77.849136"
         y="347.11755"
         d="m 83.140803,347.11755 h 41.368237 a 5.2916667,5.2916667 45 0 1 5.29167,5.29167 v 42.97314 a 5.2916667,5.2916667 135 0 1 -5.29167,5.29167 H 83.140803 a 5.2916667,5.2916667 45 0 1 -5.291667,-5.29167 v -42.97314 a 5.2916667,5.2916667 135 0 1 5.291667,-5.29167 z" />
      <g
         id="g3688"
         transform="translate(275.52776,-6.6111149)">
        <path
           style="fill:#2a3539;fill-opacity:1;stroke:#000000;stroke-width:1;stroke-linecap:butt;stroke-linejoin:miter;stroke-miterlimit:4;stroke-dasharray:none;stroke-opacity:1"
           d="m -167.91853,369.18087 20.42469,9.09568 c 0,0 1.64137,-3.89054 2.99822,-7.77389 1.02601,-2.93645 3.39931,-10.37538 2.65508,-13.0104 -0.88541,-3.13486 -11.44138,-7.7438 -14.3655,-6.3051 -1.51074,0.74329 -5.62169,7.18406 -7.85448,10.79687 -2.23279,3.61282 -3.858,7.19682 -3.858,7.19682 z"
           id="path21091-7-0-4" />
        <path
           style="fill:#f59b3a;fill-opacity:1;stroke:#000000;stroke-width:1;stroke-linecap:butt;stroke-linejoin:miter;stroke-miterlimit:4;stroke-dasharray:none;stroke-opacity:1"
           d="m -192.99609,380.30977 c 11.67951,20.78411 17.90706,28.98708 18.4609,29.5137 0.55386,0.52662 1.18692,0.53352 1.83329,0.23259 0.64638,-0.30091 12.08145,-6.00038 12.95392,-6.93189 0.87247,-0.9315 0.54534,-1.57094 0.33453,-2.27546 -0.21081,-0.70451 -2.53356,-7.63766 -7.54715,-18.80704 -5.01359,-11.16937 -6.08207,-12.56749 -6.08207,-12.56749 z"
           id="path1959-5-6-02" />
        <path
           style="fill:#f59b3a;fill-opacity:1;stroke:#000000;stroke-width:1;stroke-linecap:butt;stroke-linejoin:miter;stroke-miterlimit:4;stroke-dasharray:none;stroke-opacity:1"
           d="m -193.27268,360.24027 1.69824,2.9411 3.5967,-1.85791 -2.69133,-4.32434 z"
           id="path3922-2-0-1" />
        <path
           style="fill:none;stroke:#000000;stroke-width:1;stroke-linecap:butt;stroke-linejoin:miter;stroke-miterlimit:4;stroke-dasharray:none;stroke-opacity:1"
           d="m -178.61099,378.9492 c 0,0 -0.20505,-2.11297 1.19828,-2.86896 1.40336,-0.75596 2.90239,0.81935 2.90239,0.81935"
           id="path19489-8-3-3-6" />
        <path
           style="fill:#2a3539;fill-opacity:1;stroke:#000000;stroke-width:1;stroke-linecap:butt;stroke-linejoin:miter;stroke-miterlimit:4;stroke-dasharray:none;stroke-opacity:1"
           d="m -192.56391,378.47472 0.55125,0.97897 17.9292,-9.5024 -0.50542,-0.99228 c 0,0 -2.05935,0.38861 -3.537,0.176 -1.35515,-0.19498 -4.41043,-1.27978 -5.52456,-2.40966 -1.03653,-1.05117 -3.15543,-5.94576 -3.15543,-5.94576 l -5.75705,3.04405 c 0,0 2.74722,4.50523 2.96848,5.98808 0.24126,1.61691 -0.0335,3.88996 -0.63222,5.29194 -0.53386,1.25009 -0.84761,2.01881 -2.33726,3.37107 z"
           id="path2074-9-5-0" />
        <path
           style="fill:none;stroke:#000000;stroke-width:1;stroke-linecap:butt;stroke-linejoin:miter;stroke-miterlimit:4;stroke-dasharray:none;stroke-opacity:1"
           d="m -184.08087,385.90638 c 2.85279,2.59817 6.29062,2.06816 8.41077,0.95938 2.12015,-1.10874 3.52091,-3.60021 2.9948,-6.59733"
           id="path18994-7-6-2" />
        <path
           style="fill:none;stroke:#000000;stroke-width:1;stroke-linecap:butt;stroke-linejoin:miter;stroke-miterlimit:4;stroke-dasharray:none;stroke-opacity:1"
           d="m -186.36026,383.00061 c 0,0 -0.20504,-2.11297 1.19829,-2.86896 1.40335,-0.75596 2.90239,0.81935 2.90239,0.81935"
           id="path19489-9-0-07" />
        <path
           style="fill:none;stroke:#000000;stroke-width:1;stroke-linecap:butt;stroke-linejoin:miter;stroke-miterlimit:4;stroke-dasharray:none;stroke-opacity:1"
           d="m -188.73446,387.57228 c -0.80138,3.55991 -0.67708,6.33353 1.42143,8.0944 2.22175,1.86428 4.97727,1.68203 8.70088,-0.006"
           id="path25711-2-3" />
        <path
           style="fill:none;stroke:#000000;stroke-width:1;stroke-linecap:butt;stroke-linejoin:miter;stroke-miterlimit:4;stroke-dasharray:none;stroke-opacity:1"
           d="m -168.6441,378.5111 c 6.53871,0.93697 6.82005,-3.99425 5.80358,-7.20815"
           id="path25713-5-1" />
      </g>
    </g>
  </g>
</svg>
