<?xml version="1.0" encoding="UTF-8" standalone="no"?>
<!-- Created with Inkscape (http://www.inkscape.org/) -->

<svg
   width="64.000008"
   height="64.000008"
   viewBox="0 0 16.933335 16.933337"
   version="1.1"
   id="svg10636"
   xmlns="http://www.w3.org/2000/svg"
   xmlns:svg="http://www.w3.org/2000/svg">
  <defs
     id="defs10633" />
  <g
     id="layer1"
     transform="translate(-42.68412,-64.972259)">
    <g
       id="icon">
      <rect
         style="fill:#3a95f5;fill-opacity:0;stroke:#000000;stroke-width:0;stroke-linecap:round;stroke-linejoin:round;stroke-miterlimit:4;stroke-dasharray:none;stroke-opacity:0.208085"
         id="rect14780-5"
         width="16.933334"
         height="16.933334"
         x="42.68412"
         y="64.97226" />
      <g
         id="g21465">
        <path
           style="fill:#6b86ff;fill-opacity:1;stroke:#000000;stroke-width:0;stroke-linecap:round;stroke-linejoin:round;stroke-miterlimit:4;stroke-dasharray:none"
           id="path14754-0"
           width="14.552083"
           height="14.55207"
           x="42.948704"
           y="66.030594"
           d="m 45.594537,66.030594 h 9.260416 a 2.6458333,2.6458333 45 0 1 2.645834,2.645833 v 9.260403 a 2.6458333,2.6458333 135 0 1 -2.645834,2.645834 l -9.260416,0 A 2.6458333,2.6458333 45 0 1 42.948704,77.93683 v -9.260403 a 2.6458333,2.6458333 135 0 1 2.645833,-2.645833 z" />
        <g
           id="g21452">
          <path
             style="fill:#2a3539;fill-opacity:1;stroke:#000000;stroke-width:0.264583;stroke-linecap:butt;stroke-linejoin:miter;stroke-miterlimit:4;stroke-dasharray:none;stroke-opacity:1"
             d="m 57.765371,72.645167 c 0,0 0.339325,-0.903443 0.707244,-1.956433 0.278208,-0.79625 0.902411,-2.801449 0.700608,-3.515958 -0.240084,-0.850036 -3.102398,-2.099777 -3.89529,-1.709662 -0.409647,0.201548 -1.409954,1.833059 -2.015388,2.812688 -0.605435,0.97965 -1.053424,1.988115 -1.053424,1.988115 z"
             id="path14758-0" />
          <path
             style="fill:#ffd101;fill-opacity:1;stroke:#000000;stroke-width:0.264583;stroke-linecap:butt;stroke-linejoin:miter;stroke-miterlimit:4;stroke-dasharray:none;stroke-opacity:1"
             d="m 45.06537,73.438917 c 1.322917,2.645834 3.763668,6.13449 5.077605,7.739447 0.233532,0.285256 0.396034,0.309117 0.718949,0.209574 0.252842,-0.07794 3.219015,-1.589161 3.45559,-1.841741 0.236576,-0.25258 0.102036,-0.492293 0.04487,-0.683323 -0.565763,-1.71979 -2.153263,-5.68854 -3.476183,-8.334371 z"
             id="path14760-3" />
          <path
             style="fill:none;stroke:#000000;stroke-width:0.264583;stroke-linecap:butt;stroke-linejoin:miter;stroke-miterlimit:4;stroke-dasharray:none;stroke-opacity:1"
             d="m 49.563287,73.438917 c 0,0 -0.115939,-0.58876 0.264584,-0.79375 0.380527,-0.20498 0.79375,0.264583 0.79375,0.264583"
             id="path14770-2-7" />
          <path
             style="fill:#ffd101;fill-opacity:1;stroke:#000000;stroke-width:0.264583;stroke-linecap:butt;stroke-linejoin:miter;stroke-miterlimit:4;stroke-dasharray:none;stroke-opacity:1"
             d="m 45.329954,67.882667 0.399943,0.973398 1.011653,-0.595362 -0.617846,-1.171786 z"
             id="path14762-4" />
          <path
             style="fill:#2a3539;fill-opacity:1;stroke:#000000;stroke-width:0.264583;stroke-linecap:butt;stroke-linejoin:miter;stroke-miterlimit:4;stroke-dasharray:none;stroke-opacity:1"
             d="m 45.594537,73.174334 4.7625,-2.38125 -0.264583,-0.529167 c 0,0 -0.429206,0.124403 -0.831187,0.07669 -0.410081,-0.04867 -1.047051,-0.180477 -1.364094,-0.513852 -0.275858,-0.29007 -0.979719,-1.6795 -0.979719,-1.6795 l -1.322917,0.79375 c 0,0 0.639632,1.197326 0.664791,1.603098 0.02958,0.47714 -0.114878,0.972781 -0.277212,1.352931 -0.14476,0.33898 -0.652162,0.748135 -0.652162,0.748135 z"
             id="path14766-6" />
          <path
             style="fill:none;stroke:#000000;stroke-width:0.264583;stroke-linecap:butt;stroke-linejoin:miter;stroke-miterlimit:4;stroke-dasharray:none;stroke-opacity:1"
             d="m 47.975787,75.291001 c 0.79375,0.529167 1.626304,0.491229 2.288933,0.111188 0.553984,-0.31773 0.886067,-0.904938 0.886067,-1.698688"
             id="path14768-0" />
          <path
             style="fill:none;stroke:#000000;stroke-width:0.264583;stroke-linecap:butt;stroke-linejoin:miter;stroke-miterlimit:4;stroke-dasharray:none;stroke-opacity:1"
             d="m 47.446621,74.497251 c 0,0 -0.115939,-0.58876 0.264584,-0.79375 0.380527,-0.20498 0.79375,0.264583 0.79375,0.264583"
             id="path14770-2" />
          <path
             style="fill:none;stroke:#000000;stroke-width:0.264583;stroke-linecap:butt;stroke-linejoin:miter;stroke-miterlimit:4;stroke-dasharray:none;stroke-opacity:1"
             d="m 46.388287,75.820167 c -0.217299,0.9653 -0.01154,1.34598 0.454801,1.703858 0.623893,0.478784 1.349616,0.4561 2.359295,-0.002"
             id="path14772-5" />
          <path
             style="fill:none;stroke:#000000;stroke-width:0.264583;stroke-linecap:butt;stroke-linejoin:miter;stroke-miterlimit:4;stroke-dasharray:none;stroke-opacity:1"
             d="m 51.944537,72.909751 c 1.77301,0.25407 1.863121,-1.245197 1.5875,-2.116667"
             id="path14774-8" />
        </g>
      </g>
    </g>
  </g>
</svg>
